<svg xmlns="http://www.w3.org/2000/svg" width="512" height="512" viewBox="0 0 512 512"><path fill="#61269E" d="M428 206l-1-2.2-1-1.7-1.7-3c-11.5-19.3-21.2-28.7-37-43.5 0 0-.3 0-.4-.2-5.4-4-11.5-10-18.5-15-10-7.2-24.5-17-33-23-68.8-50.7-75-87-72-104.8 1-7-5-13.3-12-12.4-16.5 2.6-41.2 12-56.2 46l-.2.4-1 2.7c-1.4 3.6-2.6 7-3.7 10.7v.4c-1 2.7-1.5 5.5-2 8-11 48.3 12 83 14.3 86.7C215 175 234 195.2 262.8 213c22.4 14 36 23.8 51 38.5 7.7 8.7 13.4 15.3 17.6 24.7 4.8 11 8.4 27.4 8.4 40 0 47.4-37.4 85.7-83.6 85.7-46 0-83.5-38.4-83.5-86 0-30.2 15.7-57 39.2-72.2 4-2.6 4.2-9 0-12-34.8-26-52.5-55.3-58.8-83.5-1.5-6-8.5-8.7-13.6-5.2-21.4 14-52.6 42.4-67.8 92.3l-1 4C62.2 269 58.5 305 62.8 341c2 26.2 9.7 50.8 22 72.8 12.5 24 30.3 45 54.8 61.2 32.4 23 72.7 37 116.4 37 98.4 0 179.7-70 192-160.3 1-5.8 1.7-11.4 2-17 2.6-39.5 1.3-85-22-128.4"/></svg>