<svg xmlns="http://www.w3.org/2000/svg" width="1405" height="512" viewBox="-351.25 -128 2107.5 768"><path fill="#61269E" d="M1378 206l-1-2.2-1-1.7-1.7-3c-11.5-19.3-21.2-28.7-37-43.5 0 0-.3 0-.4-.2-5.4-4-11.5-10-18.5-15-10-7.2-24.5-17-33-23-68.8-50.7-75-87-72-104.8 1-7-5-13.3-12-12.4-16.5 2.6-41.2 12-56.2 46l-.2.4-1 2.7c-1.4 3.6-2.6 7-3.7 10.7v.4c-1 2.7-1.5 5.5-2 8-11 48.3 12 83 14.3 86.7 12.4 19.9 31.4 40.1 60.2 57.9 22.4 14 36 23.8 51 38.5 7.7 8.7 13.4 15.3 17.6 24.7 4.8 11 8.4 27.4 8.4 40 0 47.4-37.4 85.7-83.6 85.7-46 0-83.5-38.4-83.5-86 0-30.2 15.7-57 39.2-72.2 4-2.6 4.2-9 0-12-34.8-26-52.5-55.3-58.8-83.5-1.5-6-8.5-8.7-13.6-5.2-21.4 14-52.6 42.4-67.8 92.3l-1 4c-8.5 29.7-12.2 65.7-7.9 101.7 2 26.2 9.7 50.8 22 72.8 12.5 24 30.3 45 54.8 61.2 32.4 23 72.7 37 116.4 37 98.4 0 179.7-70 192-160.3 1-5.8 1.7-11.4 2-17 2.6-39.5 1.3-85-22-128.4M142.3 294.6c19 0 32.3-13.3 32.3-32.6 0-19-13.2-32.4-32.4-32.4h-28.6v65.2h28.5zm-5-164c96 0 153.8 52.4 153.8 131.4 0 79.3-57.8 132-154 132h-22.2v110.3c0 3.8-3.8 7.7-8.7 7.7H7.7c-4 0-7.7-4-7.7-7.8V138.6c0-4.4 4-8.3 7.8-8.3h129.6zm508 0c5 0 8.8 3.7 6 8.7l-121.4 220v145c0 3.7-3.7 7.6-8 7.6h-97c-4 0-8-4-8-7.8v-145l-121.4-220c-2.8-5 1-8.7 6-8.7h114.2c5.6 0 10.5 3.8 12.7 8.8l45 99.6 45-99.8c2.3-5 7.3-8.7 12.8-8.7h114.2zm173 158c18.7 0 31.4-11.6 31.4-29.3 0-17.8-12.7-29.3-31.4-29.3h-32.4v58.9h32.4zm167.6 214.5c2.7 5-1 8.8-6 8.8H862.1c-5.5 0-10.4-4-12.6-9l-57-120.4h-6.6v121.7c0 3.8-4 7.7-8.8 7.7h-96.6c-4.5 0-8.3-4-8.3-7.8V138.7c0-4.5 3.7-8.3 8.2-8.3h145c84.6 0 140.6 49.8 140.6 125 0 43.6-26.2 87.8-67.4 105.6l87.3 141.9z"/></svg>