<svg xmlns="http://www.w3.org/2000/svg" width="{{ width }}" height="{{ height }}" viewBox="{{ viewbox_x }} {{ viewbox_y }} {{ viewbox_width }} {{ viewbox_height }}">
  {% if background_fill != "none" %}<rect x="{{ viewbox_x }}" y="{{ viewbox_y }}" width="{{ viewbox_width }}" height="{{ viewbox_height }}" fill="{{ background_fill }}"/>{% endif %}
  <g transform="{{ transform_symbol }}">
    <path id="logo" fill="{{ symbol_fill }}" d="M428 206l-1-2.2-1-1.7-1.7-3c-11.5-19.3-21.2-28.7-37-43.5 0 0-.3 0-.4-.2-5.4-4-11.5-10-18.5-15-10-7.2-24.5-17-33-23-68.8-50.7-75-87-72-104.8 1-7-5-13.3-12-12.4-16.5 2.6-41.2 12-56.2 46l-.2.4-1 2.7c-1.4 3.6-2.6 7-3.7 10.7v.4c-1 2.7-1.5 5.5-2 8-11 48.3 12 83 14.3 86.7C215 175 234 195.2 262.8 213c22.4 14 36 23.8 51 38.5 7.7 8.7 13.4 15.3 17.6 24.7 4.8 11 8.4 27.4 8.4 40 0 47.4-37.4 85.7-83.6 85.7-46 0-83.5-38.4-83.5-86 0-30.2 15.7-57 39.2-72.2 4-2.6 4.2-9 0-12-34.8-26-52.5-55.3-58.8-83.5-1.5-6-8.5-8.7-13.6-5.2-21.4 14-52.6 42.4-67.8 92.3l-1 4C62.2 269 58.5 305 62.8 341c2 26.2 9.7 50.8 22 72.8 12.5 24 30.3 45 54.8 61.2 32.4 23 72.7 37 116.4 37 98.4 0 179.7-70 192-160.3 1-5.8 1.7-11.4 2-17 2.6-39.5 1.3-85-22-128.4"/>
  </g>
  {% if show_text %}
  <path id="text" fill="{{ text_fill }}" d="m 142.3,294.6 c 19,0 32.3,-13.3 32.3,-32.6 0,-19 -13.2,-32.4 -32.4,-32.4 l -28.6,0 0,65.2 28.5,0 z m -5,-164 c 96,0 153.8,52.4 153.8,131.4 0,79.3 -57.8,132 -154,132 l -22.2,0 0,110.3 c 0,3.8 -3.8,7.7 -8.7,7.7 L 7.7,512 C 3.7,512 0,508 0,504.2 L 0,138.6 c 0,-4.4 4,-8.3 7.8,-8.3 l 129.6,0 z m 508,0 c 5,0 8.8,3.7 6,8.7 l -121.4,220 0,145 c 0,3.7 -3.7,7.6 -8,7.6 l -97,0 c -4,0 -8,-4 -8,-7.8 l 0,-145 -121.4,-220 c -2.8,-5 1,-8.7 6,-8.7 l 114.2,0 c 5.6,0 10.5,3.8 12.7,8.8 l 45,99.6 45,-99.8 c 2.3,-5 7.3,-8.7 12.8,-8.7 l 114.2,0 z m 173,158 c 18.7,0 31.4,-11.6 31.4,-29.3 0,-17.8 -12.7,-29.3 -31.4,-29.3 l -32.4,0 0,58.9 32.4,0 z m 167.6,214.5 c 2.7,5 -1,8.8 -6,8.8 l -117.8,0 c -5.5,0 -10.4,-4 -12.6,-9 l -57,-120.4 -6.6,0 0,121.7 c 0,3.8 -4,7.7 -8.8,7.7 l -96.6,0 c -4.5,0 -8.3,-4 -8.3,-7.8 l 0,-365.4 c 0,-4.5 3.7,-8.3 8.2,-8.3 l 145,0 c 84.6,0 140.6,49.8 140.6,125 0,43.6 -26.2,87.8 -67.4,105.6 l 87.3,141.9 z"/>
  {% endif %}
</svg>
